<?xml version="1.0" encoding="us-ascii" standalone="no"?><svg xmlns="http://www.w3.org/2000/svg" xmlns:xlink="http://www.w3.org/1999/xlink" contentStyleType="text/css" height="763px" preserveAspectRatio="none" style="width:986px;height:763px;background:#FFFFFF;" version="1.1" viewBox="0 0 986 763" width="986px" zoomAndPan="magnify"><defs/><g><!--cluster Core Domain--><g id="cluster_Core Domain"><path d="M13.5,380.422 L104.5,380.422 A3.75,3.75 0 0 1 107,382.922 L114,405.4899 L976.5,405.4899 A2.5,2.5 0 0 1 979,407.9899 L979,754.062 A2.5,2.5 0 0 1 976.5,756.562 L13.5,756.562 A2.5,2.5 0 0 1 11,754.062 L11,382.922 A2.5,2.5 0 0 1 13.5,380.422 " fill="#FFFFFF" style="stroke:#000000;stroke-width:1.0;"/><line style="stroke:#000000;stroke-width:1.0;" x1="11" x2="114" y1="405.4899" y2="405.4899"/><text fill="#000000" font-family="Verdana" font-size="14" font-weight="bold" lengthAdjust="spacing" textLength="90" x="15" y="397.3879">Core Domain</text><text fill="#000000" font-family="Verdana" font-size="14" font-style="italic" lengthAdjust="spacing" textLength="63" x="467.5" y="422.4558">&#171;Domain&#187;</text></g><!--cluster Services--><g id="cluster_Services"><path d="M37.5,445.422 L94.5,445.422 A3.75,3.75 0 0 1 97,447.922 L104,470.4899 L952.5,470.4899 A2.5,2.5 0 0 1 955,472.9899 L955,560.992 A2.5,2.5 0 0 1 952.5,563.492 L37.5,563.492 A2.5,2.5 0 0 1 35,560.992 L35,447.922 A2.5,2.5 0 0 1 37.5,445.422 " fill="#FFFFFF" style="stroke:#000000;stroke-width:1.0;"/><line style="stroke:#000000;stroke-width:1.0;" x1="35" x2="104" y1="470.4899" y2="470.4899"/><text fill="#000000" font-family="Verdana" font-size="14" font-weight="bold" lengthAdjust="spacing" textLength="56" x="39" y="462.3879">Services</text><text fill="#000000" font-family="Verdana" font-size="14" font-style="italic" lengthAdjust="spacing" textLength="49" x="474.5" y="487.4558">&#171;Layer&#187;</text></g><!--cluster Utilities--><g id="cluster_Utilities"><path d="M257.5,614.492 L312.5,614.492 A3.75,3.75 0 0 1 315,616.992 L322,639.5599 L378.5,639.5599 A2.5,2.5 0 0 1 381,642.0599 L381,730.062 A2.5,2.5 0 0 1 378.5,732.562 L257.5,732.562 A2.5,2.5 0 0 1 255,730.062 L255,616.992 A2.5,2.5 0 0 1 257.5,614.492 " fill="#FFFFFF" style="stroke:#000000;stroke-width:1.0;"/><line style="stroke:#000000;stroke-width:1.0;" x1="255" x2="322" y1="639.5599" y2="639.5599"/><text fill="#000000" font-family="Verdana" font-size="14" font-weight="bold" lengthAdjust="spacing" textLength="54" x="259" y="631.4579">Utilities</text><text fill="#000000" font-family="Verdana" font-size="14" font-style="italic" lengthAdjust="spacing" textLength="49" x="297.5" y="656.5258">&#171;Layer&#187;</text></g><!--cluster Architecture Domain--><g id="cluster_Architecture Domain"><path d="M238.5,11.602 L383.5,11.602 A3.75,3.75 0 0 1 386,14.102 L393,36.6699 L451.5,36.6699 A2.5,2.5 0 0 1 454,39.1699 L454,326.922 A2.5,2.5 0 0 1 451.5,329.422 L238.5,329.422 A2.5,2.5 0 0 1 236,326.922 L236,14.102 A2.5,2.5 0 0 1 238.5,11.602 " fill="#FFFFFF" style="stroke:#000000;stroke-width:1.0;"/><line style="stroke:#000000;stroke-width:1.0;" x1="236" x2="393" y1="36.6699" y2="36.6699"/><text fill="#000000" font-family="Verdana" font-size="14" font-weight="bold" lengthAdjust="spacing" textLength="144" x="240" y="28.5679">Architecture Domain</text><text fill="#000000" font-family="Verdana" font-size="14" font-style="italic" lengthAdjust="spacing" textLength="63" x="317.5" y="53.6358">&#171;Domain&#187;</text></g><!--cluster Godot Domain--><g id="cluster_Godot Domain"><path d="M480.5,195.012 L582.5,195.012 A3.75,3.75 0 0 1 585,197.512 L592,220.0799 L966.5,220.0799 A2.5,2.5 0 0 1 969,222.5799 L969,326.922 A2.5,2.5 0 0 1 966.5,329.422 L480.5,329.422 A2.5,2.5 0 0 1 478,326.922 L478,197.512 A2.5,2.5 0 0 1 480.5,195.012 " fill="#FFFFFF" style="stroke:#000000;stroke-width:1.0;"/><line style="stroke:#000000;stroke-width:1.0;" x1="478" x2="592" y1="220.0799" y2="220.0799"/><text fill="#000000" font-family="Verdana" font-size="14" font-weight="bold" lengthAdjust="spacing" textLength="101" x="482" y="211.9779">Godot Domain</text><text fill="#000000" font-family="Verdana" font-size="14" font-style="italic" lengthAdjust="spacing" textLength="66" x="694.5" y="237.0458">&#171;External&#187;</text></g><!--class PlacementService--><g id="elem_PlacementService"><rect codeLine="7" fill="#FFFFFF" height="45.0679" id="PlacementService" rx="2.5" ry="2.5" style="stroke:#000000;stroke-width:1.0;" width="146" x="51" y="502.422"/><ellipse cx="64" cy="516.9559" fill="#FFFFFF" rx="9" ry="9" style="stroke:#000000;stroke-width:1.0;"/><path d="M63.4688,523.8778 Q61.7188,523.8778 60.5781,523.1434 Q59.4531,522.3934 58.8906,521.0497 Q58.3438,519.6903 58.3438,517.8934 Q58.3438,515.8622 59,514.4091 Q59.6563,512.9559 60.9375,512.1747 Q62.2188,511.3934 64.0938,511.3934 Q64.9844,511.3934 65.6563,511.5809 Q66.3281,511.7528 67.0156,512.0966 L66.2031,514.1122 Q65.5781,513.7997 65.0313,513.6747 Q64.5,513.5497 64.0156,513.5497 Q62.8438,513.5497 62.1406,514.0809 Q61.4375,514.6122 61.1406,515.5653 Q60.8438,516.5184 60.8438,517.7841 Q60.8438,519.7997 61.5625,520.7684 Q62.2813,521.7216 63.875,521.7216 Q64.4688,521.7216 65.0938,521.5653 Q65.7188,521.4091 66.5469,521.0341 L66.5469,523.2528 Q65.8125,523.5653 65.0156,523.7216 Q64.2344,523.8778 63.4688,523.8778 Z " fill="#000000"/><text fill="#000000" font-family="Verdana" font-size="14" lengthAdjust="spacing" textLength="118" x="76" y="522.3879">PlacementService</text><line style="stroke:#000000;stroke-width:1.0;" x1="52" x2="196" y1="531.4899" y2="531.4899"/><line style="stroke:#000000;stroke-width:1.0;" x1="52" x2="196" y1="539.4899" y2="539.4899"/></g><!--class GridTargetingService--><g id="elem_GridTargetingService"><rect codeLine="8" fill="#FFFFFF" height="45.0679" id="GridTargetingService" rx="2.5" ry="2.5" style="stroke:#000000;stroke-width:1.0;" width="171" x="232.5" y="502.422"/><ellipse cx="245.5" cy="516.9559" fill="#FFFFFF" rx="9" ry="9" style="stroke:#000000;stroke-width:1.0;"/><path d="M244.9688,523.8778 Q243.2188,523.8778 242.0781,523.1434 Q240.9531,522.3934 240.3906,521.0497 Q239.8438,519.6903 239.8438,517.8934 Q239.8438,515.8622 240.5,514.4091 Q241.1563,512.9559 242.4375,512.1747 Q243.7188,511.3934 245.5938,511.3934 Q246.4844,511.3934 247.1563,511.5809 Q247.8281,511.7528 248.5156,512.0966 L247.7031,514.1122 Q247.0781,513.7997 246.5313,513.6747 Q246,513.5497 245.5156,513.5497 Q244.3438,513.5497 243.6406,514.0809 Q242.9375,514.6122 242.6406,515.5653 Q242.3438,516.5184 242.3438,517.7841 Q242.3438,519.7997 243.0625,520.7684 Q243.7813,521.7216 245.375,521.7216 Q245.9688,521.7216 246.5938,521.5653 Q247.2188,521.4091 248.0469,521.0341 L248.0469,523.2528 Q247.3125,523.5653 246.5156,523.7216 Q245.7344,523.8778 244.9688,523.8778 Z " fill="#000000"/><text fill="#000000" font-family="Verdana" font-size="14" lengthAdjust="spacing" textLength="143" x="257.5" y="522.3879">GridTargetingService</text><line style="stroke:#000000;stroke-width:1.0;" x1="233.5" x2="402.5" y1="531.4899" y2="531.4899"/><line style="stroke:#000000;stroke-width:1.0;" x1="233.5" x2="402.5" y1="539.4899" y2="539.4899"/></g><!--class ManipulationService--><g id="elem_ManipulationService"><rect codeLine="9" fill="#FFFFFF" height="45.0679" id="ManipulationService" rx="2.5" ry="2.5" style="stroke:#000000;stroke-width:1.0;" width="166" x="439" y="502.422"/><ellipse cx="452" cy="516.9559" fill="#FFFFFF" rx="9" ry="9" style="stroke:#000000;stroke-width:1.0;"/><path d="M451.4688,523.8778 Q449.7188,523.8778 448.5781,523.1434 Q447.4531,522.3934 446.8906,521.0497 Q446.3438,519.6903 446.3438,517.8934 Q446.3438,515.8622 447,514.4091 Q447.6563,512.9559 448.9375,512.1747 Q450.2188,511.3934 452.0938,511.3934 Q452.9844,511.3934 453.6563,511.5809 Q454.3281,511.7528 455.0156,512.0966 L454.2031,514.1122 Q453.5781,513.7997 453.0313,513.6747 Q452.5,513.5497 452.0156,513.5497 Q450.8438,513.5497 450.1406,514.0809 Q449.4375,514.6122 449.1406,515.5653 Q448.8438,516.5184 448.8438,517.7841 Q448.8438,519.7997 449.5625,520.7684 Q450.2813,521.7216 451.875,521.7216 Q452.4688,521.7216 453.0938,521.5653 Q453.7188,521.4091 454.5469,521.0341 L454.5469,523.2528 Q453.8125,523.5653 453.0156,523.7216 Q452.2344,523.8778 451.4688,523.8778 Z " fill="#000000"/><text fill="#000000" font-family="Verdana" font-size="14" lengthAdjust="spacing" textLength="138" x="464" y="522.3879">ManipulationService</text><line style="stroke:#000000;stroke-width:1.0;" x1="440" x2="604" y1="531.4899" y2="531.4899"/><line style="stroke:#000000;stroke-width:1.0;" x1="440" x2="604" y1="539.4899" y2="539.4899"/></g><!--class BuildingService--><g id="elem_BuildingService"><rect codeLine="10" fill="#FFFFFF" height="45.0679" id="BuildingService" rx="2.5" ry="2.5" style="stroke:#000000;stroke-width:1.0;" width="133" x="640.5" y="502.422"/><ellipse cx="653.5" cy="516.9559" fill="#FFFFFF" rx="9" ry="9" style="stroke:#000000;stroke-width:1.0;"/><path d="M652.9688,523.8778 Q651.2188,523.8778 650.0781,523.1434 Q648.9531,522.3934 648.3906,521.0497 Q647.8438,519.6903 647.8438,517.8934 Q647.8438,515.8622 648.5,514.4091 Q649.1563,512.9559 650.4375,512.1747 Q651.7188,511.3934 653.5938,511.3934 Q654.4844,511.3934 655.1563,511.5809 Q655.8281,511.7528 656.5156,512.0966 L655.7031,514.1122 Q655.0781,513.7997 654.5313,513.6747 Q654,513.5497 653.5156,513.5497 Q652.3438,513.5497 651.6406,514.0809 Q650.9375,514.6122 650.6406,515.5653 Q650.3438,516.5184 650.3438,517.7841 Q650.3438,519.7997 651.0625,520.7684 Q651.7813,521.7216 653.375,521.7216 Q653.9688,521.7216 654.5938,521.5653 Q655.2188,521.4091 656.0469,521.0341 L656.0469,523.2528 Q655.3125,523.5653 654.5156,523.7216 Q653.7344,523.8778 652.9688,523.8778 Z " fill="#000000"/><text fill="#000000" font-family="Verdana" font-size="14" lengthAdjust="spacing" textLength="105" x="665.5" y="522.3879">BuildingService</text><line style="stroke:#000000;stroke-width:1.0;" x1="641.5" x2="772.5" y1="531.4899" y2="531.4899"/><line style="stroke:#000000;stroke-width:1.0;" x1="641.5" x2="772.5" y1="539.4899" y2="539.4899"/></g><!--class ServiceRegistry--><g id="elem_ServiceRegistry"><rect codeLine="11" fill="#FFFFFF" height="45.0679" id="ServiceRegistry" rx="2.5" ry="2.5" style="stroke:#000000;stroke-width:1.0;" width="131" x="808.5" y="502.422"/><ellipse cx="821.5" cy="516.9559" fill="#FFFFFF" rx="9" ry="9" style="stroke:#000000;stroke-width:1.0;"/><path d="M820.9688,523.8778 Q819.2188,523.8778 818.0781,523.1434 Q816.9531,522.3934 816.3906,521.0497 Q815.8438,519.6903 815.8438,517.8934 Q815.8438,515.8622 816.5,514.4091 Q817.1563,512.9559 818.4375,512.1747 Q819.7188,511.3934 821.5938,511.3934 Q822.4844,511.3934 823.1563,511.5809 Q823.8281,511.7528 824.5156,512.0966 L823.7031,514.1122 Q823.0781,513.7997 822.5313,513.6747 Q822,513.5497 821.5156,513.5497 Q820.3438,513.5497 819.6406,514.0809 Q818.9375,514.6122 818.6406,515.5653 Q818.3438,516.5184 818.3438,517.7841 Q818.3438,519.7997 819.0625,520.7684 Q819.7813,521.7216 821.375,521.7216 Q821.9688,521.7216 822.5938,521.5653 Q823.2188,521.4091 824.0469,521.0341 L824.0469,523.2528 Q823.3125,523.5653 822.5156,523.7216 Q821.7344,523.8778 820.9688,523.8778 Z " fill="#000000"/><text fill="#000000" font-family="Verdana" font-size="14" lengthAdjust="spacing" textLength="103" x="833.5" y="522.3879">ServiceRegistry</text><line style="stroke:#000000;stroke-width:1.0;" x1="809.5" x2="938.5" y1="531.4899" y2="531.4899"/><line style="stroke:#000000;stroke-width:1.0;" x1="809.5" x2="938.5" y1="539.4899" y2="539.4899"/></g><!--class MathUtils--><g id="elem_MathUtils"><rect codeLine="14" fill="#FFFFFF" height="45.0679" id="MathUtils" rx="2.5" ry="2.5" style="stroke:#000000;stroke-width:1.0;" width="93" x="271.5" y="671.492"/><ellipse cx="284.5" cy="686.0259" fill="#FFFFFF" rx="9" ry="9" style="stroke:#000000;stroke-width:1.0;"/><path d="M283.9688,692.9478 Q282.2188,692.9478 281.0781,692.2134 Q279.9531,691.4634 279.3906,690.1197 Q278.8438,688.7603 278.8438,686.9634 Q278.8438,684.9322 279.5,683.4791 Q280.1563,682.0259 281.4375,681.2447 Q282.7188,680.4634 284.5938,680.4634 Q285.4844,680.4634 286.1563,680.6509 Q286.8281,680.8228 287.5156,681.1666 L286.7031,683.1822 Q286.0781,682.8697 285.5313,682.7447 Q285,682.6197 284.5156,682.6197 Q283.3438,682.6197 282.6406,683.1509 Q281.9375,683.6822 281.6406,684.6353 Q281.3438,685.5884 281.3438,686.8541 Q281.3438,688.8697 282.0625,689.8384 Q282.7813,690.7916 284.375,690.7916 Q284.9688,690.7916 285.5938,690.6353 Q286.2188,690.4791 287.0469,690.1041 L287.0469,692.3228 Q286.3125,692.6353 285.5156,692.7916 Q284.7344,692.9478 283.9688,692.9478 Z " fill="#000000"/><text fill="#000000" font-family="Verdana" font-size="14" lengthAdjust="spacing" textLength="65" x="296.5" y="691.4579">MathUtils</text><line style="stroke:#000000;stroke-width:1.0;" x1="272.5" x2="363.5" y1="700.5599" y2="700.5599"/><line style="stroke:#000000;stroke-width:1.0;" x1="272.5" x2="363.5" y1="708.5599" y2="708.5599"/></g><!--class POCSServiceLocator--><g id="elem_POCSServiceLocator"><rect codeLine="19" fill="#FFFFFF" height="61.412" id="POCSServiceLocator" rx="2.5" ry="2.5" style="stroke:#000000;stroke-width:1.0;" width="161" x="264.5" y="252.012"/><ellipse cx="277.5" cy="274.718" fill="#FFFFFF" rx="9" ry="9" style="stroke:#000000;stroke-width:1.0;"/><path d="M276.9688,281.6399 Q275.2188,281.6399 274.0781,280.9055 Q272.9531,280.1555 272.3906,278.8117 Q271.8438,277.4524 271.8438,275.6555 Q271.8438,273.6242 272.5,272.1711 Q273.1563,270.718 274.4375,269.9367 Q275.7188,269.1555 277.5938,269.1555 Q278.4844,269.1555 279.1563,269.343 Q279.8281,269.5149 280.5156,269.8586 L279.7031,271.8742 Q279.0781,271.5617 278.5313,271.4367 Q278,271.3117 277.5156,271.3117 Q276.3438,271.3117 275.6406,271.843 Q274.9375,272.3742 274.6406,273.3274 Q274.3438,274.2805 274.3438,275.5461 Q274.3438,277.5617 275.0625,278.5305 Q275.7813,279.4836 277.375,279.4836 Q277.9688,279.4836 278.5938,279.3274 Q279.2188,279.1711 280.0469,278.7961 L280.0469,281.0149 Q279.3125,281.3274 278.5156,281.4836 Q277.7344,281.6399 276.9688,281.6399 Z " fill="#000000"/><text fill="#000000" font-family="Verdana" font-size="12" font-style="italic" lengthAdjust="spacing" textLength="49" x="331.5" y="269.8401">&#171;Service&#187;</text><text fill="#000000" font-family="Verdana" font-size="14" lengthAdjust="spacing" textLength="133" x="289.5" y="288.322">POCSServiceLocator</text><line style="stroke:#000000;stroke-width:1.0;" x1="265.5" x2="424.5" y1="297.424" y2="297.424"/><line style="stroke:#000000;stroke-width:1.0;" x1="265.5" x2="424.5" y1="305.424" y2="305.424"/></g><!--class GodotPOCSArchitecture--><g id="elem_GodotPOCSArchitecture"><rect codeLine="20" fill="#FFFFFF" height="61.412" id="GodotPOCSArchitecture" rx="2.5" ry="2.5" style="stroke:#000000;stroke-width:1.0;" width="187" x="251.5" y="68.602"/><ellipse cx="264.5" cy="91.308" fill="#FFFFFF" rx="9" ry="9" style="stroke:#000000;stroke-width:1.0;"/><path d="M263.9688,98.2299 Q262.2188,98.2299 261.0781,97.4955 Q259.9531,96.7455 259.3906,95.4017 Q258.8438,94.0424 258.8438,92.2455 Q258.8438,90.2142 259.5,88.7611 Q260.1563,87.308 261.4375,86.5267 Q262.7188,85.7455 264.5938,85.7455 Q265.4844,85.7455 266.1563,85.933 Q266.8281,86.1049 267.5156,86.4486 L266.7031,88.4642 Q266.0781,88.1517 265.5313,88.0267 Q265,87.9017 264.5156,87.9017 Q263.3438,87.9017 262.6406,88.433 Q261.9375,88.9642 261.6406,89.9174 Q261.3438,90.8705 261.3438,92.1361 Q261.3438,94.1517 262.0625,95.1205 Q262.7813,96.0736 264.375,96.0736 Q264.9688,96.0736 265.5938,95.9174 Q266.2188,95.7611 267.0469,95.3861 L267.0469,97.6049 Q266.3125,97.9174 265.5156,98.0736 Q264.7344,98.2299 263.9688,98.2299 Z " fill="#000000"/><text fill="#000000" font-family="Verdana" font-size="12" font-style="italic" lengthAdjust="spacing" textLength="40" x="336" y="86.4301">&#171;Entry&#187;</text><text fill="#000000" font-family="Verdana" font-size="14" lengthAdjust="spacing" textLength="159" x="276.5" y="104.912">GodotPOCSArchitecture</text><line style="stroke:#000000;stroke-width:1.0;" x1="252.5" x2="437.5" y1="114.014" y2="114.014"/><line style="stroke:#000000;stroke-width:1.0;" x1="252.5" x2="437.5" y1="122.014" y2="122.014"/></g><!--class Node2D--><g id="elem_Node2D"><rect codeLine="24" fill="#FFFFFF" height="61.412" id="Node2D" rx="2.5" ry="2.5" style="stroke:#000000;stroke-width:1.0;" width="82" x="494" y="252.012"/><ellipse cx="507" cy="274.718" fill="#FFFFFF" rx="9" ry="9" style="stroke:#000000;stroke-width:1.0;"/><path d="M506.4688,281.6399 Q504.7188,281.6399 503.5781,280.9055 Q502.4531,280.1555 501.8906,278.8117 Q501.3438,277.4524 501.3438,275.6555 Q501.3438,273.6242 502,272.1711 Q502.6563,270.718 503.9375,269.9367 Q505.2188,269.1555 507.0938,269.1555 Q507.9844,269.1555 508.6563,269.343 Q509.3281,269.5149 510.0156,269.8586 L509.2031,271.8742 Q508.5781,271.5617 508.0313,271.4367 Q507.5,271.3117 507.0156,271.3117 Q505.8438,271.3117 505.1406,271.843 Q504.4375,272.3742 504.1406,273.3274 Q503.8438,274.2805 503.8438,275.5461 Q503.8438,277.5617 504.5625,278.5305 Q505.2813,279.4836 506.875,279.4836 Q507.4688,279.4836 508.0938,279.3274 Q508.7188,279.1711 509.5469,278.7961 L509.5469,281.0149 Q508.8125,281.3274 508.0156,281.4836 Q507.2344,281.6399 506.4688,281.6399 Z " fill="#000000"/><text fill="#000000" font-family="Verdana" font-size="12" font-style="italic" lengthAdjust="spacing" textLength="45" x="523.5" y="269.8401">&#171;Godot&#187;</text><text fill="#000000" font-family="Verdana" font-size="14" lengthAdjust="spacing" textLength="54" x="519" y="288.322">Node2D</text><line style="stroke:#000000;stroke-width:1.0;" x1="495" x2="575" y1="297.424" y2="297.424"/><line style="stroke:#000000;stroke-width:1.0;" x1="495" x2="575" y1="305.424" y2="305.424"/></g><!--class Vector2I--><g id="elem_Vector2I"><rect codeLine="25" fill="#FFFFFF" height="61.412" id="Vector2I" rx="2.5" ry="2.5" style="stroke:#000000;stroke-width:1.0;" width="83" x="611.5" y="252.012"/><ellipse cx="624.5" cy="274.718" fill="#FFFFFF" rx="9" ry="9" style="stroke:#000000;stroke-width:1.0;"/><path d="M623.9688,281.6399 Q622.2188,281.6399 621.0781,280.9055 Q619.9531,280.1555 619.3906,278.8117 Q618.8438,277.4524 618.8438,275.6555 Q618.8438,273.6242 619.5,272.1711 Q620.1563,270.718 621.4375,269.9367 Q622.7188,269.1555 624.5938,269.1555 Q625.4844,269.1555 626.1563,269.343 Q626.8281,269.5149 627.5156,269.8586 L626.7031,271.8742 Q626.0781,271.5617 625.5313,271.4367 Q625,271.3117 624.5156,271.3117 Q623.3438,271.3117 622.6406,271.843 Q621.9375,272.3742 621.6406,273.3274 Q621.3438,274.2805 621.3438,275.5461 Q621.3438,277.5617 622.0625,278.5305 Q622.7813,279.4836 624.375,279.4836 Q624.9688,279.4836 625.5938,279.3274 Q626.2188,279.1711 627.0469,278.7961 L627.0469,281.0149 Q626.3125,281.3274 625.5156,281.4836 Q624.7344,281.6399 623.9688,281.6399 Z " fill="#000000"/><text fill="#000000" font-family="Verdana" font-size="12" font-style="italic" lengthAdjust="spacing" textLength="45" x="641.5" y="269.8401">&#171;Godot&#187;</text><text fill="#000000" font-family="Verdana" font-size="14" lengthAdjust="spacing" textLength="55" x="636.5" y="288.322">Vector2I</text><line style="stroke:#000000;stroke-width:1.0;" x1="612.5" x2="693.5" y1="297.424" y2="297.424"/><line style="stroke:#000000;stroke-width:1.0;" x1="612.5" x2="693.5" y1="305.424" y2="305.424"/></g><!--class SceneTree--><g id="elem_SceneTree"><rect codeLine="26" fill="#FFFFFF" height="61.412" id="SceneTree" rx="2.5" ry="2.5" style="stroke:#000000;stroke-width:1.0;" width="98" x="730" y="252.012"/><ellipse cx="743" cy="274.718" fill="#FFFFFF" rx="9" ry="9" style="stroke:#000000;stroke-width:1.0;"/><path d="M742.4688,281.6399 Q740.7188,281.6399 739.5781,280.9055 Q738.4531,280.1555 737.8906,278.8117 Q737.3438,277.4524 737.3438,275.6555 Q737.3438,273.6242 738,272.1711 Q738.6563,270.718 739.9375,269.9367 Q741.2188,269.1555 743.0938,269.1555 Q743.9844,269.1555 744.6563,269.343 Q745.3281,269.5149 746.0156,269.8586 L745.2031,271.8742 Q744.5781,271.5617 744.0313,271.4367 Q743.5,271.3117 743.0156,271.3117 Q741.8438,271.3117 741.1406,271.843 Q740.4375,272.3742 740.1406,273.3274 Q739.8438,274.2805 739.8438,275.5461 Q739.8438,277.5617 740.5625,278.5305 Q741.2813,279.4836 742.875,279.4836 Q743.4688,279.4836 744.0938,279.3274 Q744.7188,279.1711 745.5469,278.7961 L745.5469,281.0149 Q744.8125,281.3274 744.0156,281.4836 Q743.2344,281.6399 742.4688,281.6399 Z " fill="#000000"/><text fill="#000000" font-family="Verdana" font-size="12" font-style="italic" lengthAdjust="spacing" textLength="45" x="767.5" y="269.8401">&#171;Godot&#187;</text><text fill="#000000" font-family="Verdana" font-size="14" lengthAdjust="spacing" textLength="70" x="755" y="288.322">SceneTree</text><line style="stroke:#000000;stroke-width:1.0;" x1="731" x2="827" y1="297.424" y2="297.424"/><line style="stroke:#000000;stroke-width:1.0;" x1="731" x2="827" y1="305.424" y2="305.424"/></g><!--class Resource--><g id="elem_Resource"><rect codeLine="27" fill="#FFFFFF" height="61.412" id="Resource" rx="2.5" ry="2.5" style="stroke:#000000;stroke-width:1.0;" width="90" x="863" y="252.012"/><ellipse cx="876" cy="274.718" fill="#FFFFFF" rx="9" ry="9" style="stroke:#000000;stroke-width:1.0;"/><path d="M875.4688,281.6399 Q873.7188,281.6399 872.5781,280.9055 Q871.4531,280.1555 870.8906,278.8117 Q870.3438,277.4524 870.3438,275.6555 Q870.3438,273.6242 871,272.1711 Q871.6563,270.718 872.9375,269.9367 Q874.2188,269.1555 876.0938,269.1555 Q876.9844,269.1555 877.6563,269.343 Q878.3281,269.5149 879.0156,269.8586 L878.2031,271.8742 Q877.5781,271.5617 877.0313,271.4367 Q876.5,271.3117 876.0156,271.3117 Q874.8438,271.3117 874.1406,271.843 Q873.4375,272.3742 873.1406,273.3274 Q872.8438,274.2805 872.8438,275.5461 Q872.8438,277.5617 873.5625,278.5305 Q874.2813,279.4836 875.875,279.4836 Q876.4688,279.4836 877.0938,279.3274 Q877.7188,279.1711 878.5469,278.7961 L878.5469,281.0149 Q877.8125,281.3274 877.0156,281.4836 Q876.2344,281.6399 875.4688,281.6399 Z " fill="#000000"/><text fill="#000000" font-family="Verdana" font-size="12" font-style="italic" lengthAdjust="spacing" textLength="45" x="896.5" y="269.8401">&#171;Godot&#187;</text><text fill="#000000" font-family="Verdana" font-size="14" lengthAdjust="spacing" textLength="62" x="888" y="288.322">Resource</text><line style="stroke:#000000;stroke-width:1.0;" x1="864" x2="952" y1="297.424" y2="297.424"/><line style="stroke:#000000;stroke-width:1.0;" x1="864" x2="952" y1="305.424" y2="305.424"/></g><!--link GodotPOCSArchitecture to Node2D--><g id="link_GodotPOCSArchitecture_Node2D"><path codeLine="31" d="M386.66,130.462 C407.65,146.382 433.03,166.782 454,187.012 C475.02,207.292 492.6339,227.8432 508.1439,247.1632 " fill="none" id="GodotPOCSArchitecture-to-Node2D" style="stroke:#000000;stroke-width:1.0;"/><polygon fill="#000000" points="511.9,251.842,509.385,242.3196,508.7699,247.943,503.1466,247.3278,511.9,251.842" style="stroke:#000000;stroke-width:1.0;"/><text fill="#000000" font-family="Verdana" font-size="13" lengthAdjust="spacing" textLength="48" x="443.97" y="174.909">extends</text></g><!--link GodotPOCSArchitecture to POCSServiceLocator--><g id="link_GodotPOCSArchitecture_POCSServiceLocator"><path codeLine="32" d="M345,130.262 C345,163.882 345,212.092 345,245.722 " fill="none" id="GodotPOCSArchitecture-to-POCSServiceLocator" style="stroke:#000000;stroke-width:1.0;"/><polygon fill="#000000" points="345,251.722,349,242.722,345,246.722,341,242.722,345,251.722" style="stroke:#000000;stroke-width:1.0;"/><text fill="#000000" font-family="Verdana" font-size="13" lengthAdjust="spacing" textLength="27" x="346" y="174.909">uses</text></g><!--link GodotPOCSArchitecture to Vector2I--><g id="link_GodotPOCSArchitecture_Vector2I"><path codeLine="33" d="M438.77,117.122 C488.89,129.772 549.31,151.282 594,187.012 C615.34,204.072 628.5094,225.6458 638.3294,246.4558 " fill="none" id="GodotPOCSArchitecture-to-Vector2I" style="stroke:#000000;stroke-width:1.0;"/><polygon fill="#000000" points="640.89,251.882,640.6666,242.0357,638.7562,247.3602,633.4317,245.4497,640.89,251.882" style="stroke:#000000;stroke-width:1.0;"/><text fill="#000000" font-family="Verdana" font-size="13" lengthAdjust="spacing" textLength="27" x="583.71" y="174.909">uses</text></g><!--link POCSServiceLocator to PlacementService--><g id="link_POCSServiceLocator_PlacementService"><path codeLine="34" d="M290.08,313.812 C265.24,329.172 236.66,349.472 215,372.422 C177.2,412.492 150.1598,465.413 135.8798,496.723 " fill="none" id="POCSServiceLocator-to-PlacementService" style="stroke:#000000;stroke-width:1.0;"/><polygon fill="#000000" points="133.39,502.182,140.764,495.6533,135.4648,497.6328,133.4853,492.3336,133.39,502.182" style="stroke:#000000;stroke-width:1.0;"/><text fill="#000000" font-family="Verdana" font-size="13" lengthAdjust="spacing" textLength="52" x="244.55" y="360.319">provides</text></g><!--link POCSServiceLocator to GridTargetingService--><g id="link_POCSServiceLocator_GridTargetingService"><path codeLine="35" d="M341.64,313.662 C336.12,362.712 325.9593,453.0994 321.1193,496.2194 " fill="none" id="POCSServiceLocator-to-GridTargetingService" style="stroke:#000000;stroke-width:1.0;"/><polygon fill="#000000" points="320.45,502.182,325.4289,493.6843,321.0077,497.2132,317.4789,492.792,320.45,502.182" style="stroke:#000000;stroke-width:1.0;"/><text fill="#000000" font-family="Verdana" font-size="13" lengthAdjust="spacing" textLength="52" x="338.76" y="360.319">provides</text></g><!--link POCSServiceLocator to ManipulationService--><g id="link_POCSServiceLocator_ManipulationService"><path codeLine="36" d="M372.55,313.812 C381.45,323.752 391.27,334.952 400,345.422 C444.21,398.502 484.7696,462.3872 505.8496,497.0072 " fill="none" id="POCSServiceLocator-to-ManipulationService" style="stroke:#000000;stroke-width:1.0;"/><polygon fill="#000000" points="508.97,502.132,507.7058,492.3646,506.3696,497.8614,500.8729,496.5252,508.97,502.132" style="stroke:#000000;stroke-width:1.0;"/><text fill="#000000" font-family="Verdana" font-size="13" lengthAdjust="spacing" textLength="52" x="415.71" y="360.319">provides</text></g><!--link POCSServiceLocator to BuildingService--><g id="link_POCSServiceLocator_BuildingService"><path codeLine="37" d="M414.01,313.822 C434.39,322.102 456.9,330.662 478,337.422 C541.13,357.672 570.25,332.262 623,372.422 C666.8,405.772 689.1429,463.145 699.3329,496.415 " fill="none" id="POCSServiceLocator-to-BuildingService" style="stroke:#000000;stroke-width:1.0;"/><polygon fill="#000000" points="701.09,502.152,702.2789,492.3752,699.6257,497.3712,694.6297,494.718,701.09,502.152" style="stroke:#000000;stroke-width:1.0;"/><text fill="#000000" font-family="Verdana" font-size="13" lengthAdjust="spacing" textLength="52" x="611.76" y="360.319">provides</text></g><!--link PlacementService to MathUtils--><g id="link_PlacementService_MathUtils"><path codeLine="38" d="M149.36,547.802 C186.54,579.822 250.9036,635.2466 288.0836,667.2666 " fill="none" id="PlacementService-to-MathUtils" style="stroke:#000000;stroke-width:1.0;"/><polygon fill="#000000" points="292.63,671.182,288.4207,662.2779,288.8414,667.9191,283.2002,668.3398,292.63,671.182" style="stroke:#000000;stroke-width:1.0;"/><text fill="#000000" font-family="Verdana" font-size="13" lengthAdjust="spacing" textLength="27" x="204.62" y="594.389">uses</text></g><!--link GridTargetingService to MathUtils--><g id="link_GridTargetingService_MathUtils"><path codeLine="39" d="M318,547.802 C318,579.822 318,633.162 318,665.182 " fill="none" id="GridTargetingService-to-MathUtils" style="stroke:#000000;stroke-width:1.0;"/><polygon fill="#000000" points="318,671.182,322,662.182,318,666.182,314,662.182,318,671.182" style="stroke:#000000;stroke-width:1.0;"/><text fill="#000000" font-family="Verdana" font-size="13" lengthAdjust="spacing" textLength="27" x="319" y="594.389">uses</text></g><!--link ManipulationService to MathUtils--><g id="link_ManipulationService_MathUtils"><path codeLine="40" d="M495.33,547.802 C456.23,579.822 388.4221,635.3605 349.3221,667.3805 " fill="none" id="ManipulationService-to-MathUtils" style="stroke:#000000;stroke-width:1.0;"/><polygon fill="#000000" points="344.68,671.182,354.1774,668.5744,348.5484,668.0141,349.1087,662.385,344.68,671.182" style="stroke:#000000;stroke-width:1.0;"/><text fill="#000000" font-family="Verdana" font-size="13" lengthAdjust="spacing" textLength="27" x="457.01" y="594.389">uses</text></g><!--SRC=[ZP91Ry8m38Nl_HKPbvsuS4HLfGqGcWJRHDdkLkgr4MbIEIaRclZl2oMh0WJ4hShxdlti-i5MM2Dh90YLc8rG3H3KhDPAyugqaoor62YcWa9_2rMoBv06awG1le4IsM2Y2TbKrwxIWANfyIlBs6_2M0_bI5l1qHo81UoGFC0Obs0CUvV0NI1bFHX8SnB56gX4wxfVoajGecabMA7LfVhS2bb4VVvbXQKmbdPEsOU1FwoGmehhYPTWgmDaEkS-MCWJyKfOvBQzlXW_zTiazpaMceFLv3Z_a6KzDjU5jWVsf7AQpfGBxhYmUSS6NMS_5ac1FEdxgWiSJPtQqK6dJrTRq-Wb8kKS5Qu9CQAjqEYMU2YvJ8_k_VXVJ2KQayJ760wp_pnZXYwjAcwXaPMDMMlmbgUVofEH6btfinjqU4DwAuhhbjXjtc6BtEmThhDRFd6SHpzsyHVQRoYMDah60aR1Fm00]--></g></svg>