<?xml version="1.0" encoding="us-ascii" standalone="no"?><svg xmlns="http://www.w3.org/2000/svg" xmlns:xlink="http://www.w3.org/1999/xlink" contentStyleType="text/css" height="1231px" preserveAspectRatio="none" style="width:1972px;height:1231px;background:#FFFFFF;" version="1.1" viewBox="0 0 1972 1231" width="1972px" zoomAndPan="magnify"><defs/><g><text fill="#000000" font-family="Verdana" font-size="22" font-weight="bold" lengthAdjust="spacing" textLength="671" x="646.25" y="38.5181">Godot POCS Architecture - Entry Points &amp; Service Integration</text><!--class GodotPOCSArchitecture--><g id="elem_GodotPOCSArchitecture"><rect codeLine="6" fill="#ADD8E6" height="197.6113" id="GodotPOCSArchitecture" rx="2.5" ry="2.5" style="stroke:#00008B;stroke-width:1.0;" width="579" x="831.5" y="244.2341"/><ellipse cx="1037.75" cy="258.7681" fill="#FFFFFF" rx="9" ry="9" style="stroke:#000000;stroke-width:1.0;"/><path d="M1037.2188,265.6899 Q1035.4688,265.6899 1034.3281,264.9556 Q1033.2031,264.2056 1032.6406,262.8618 Q1032.0938,261.5024 1032.0938,259.7056 Q1032.0938,257.6743 1032.75,256.2212 Q1033.4063,254.7681 1034.6875,253.9868 Q1035.9688,253.2056 1037.8438,253.2056 Q1038.7344,253.2056 1039.4063,253.3931 Q1040.0781,253.5649 1040.7656,253.9087 L1039.9531,255.9243 Q1039.3281,255.6118 1038.7813,255.4868 Q1038.25,255.3618 1037.7656,255.3618 Q1036.5938,255.3618 1035.8906,255.8931 Q1035.1875,256.4243 1034.8906,257.3774 Q1034.5938,258.3306 1034.5938,259.5962 Q1034.5938,261.6118 1035.3125,262.5806 Q1036.0313,263.5337 1037.625,263.5337 Q1038.2188,263.5337 1038.8438,263.3774 Q1039.4688,263.2212 1040.2969,262.8462 L1040.2969,265.0649 Q1039.5625,265.3774 1038.7656,265.5337 Q1037.9844,265.6899 1037.2188,265.6899 Z " fill="#000000"/><text fill="#000000" font-family="Verdana" font-size="14" lengthAdjust="spacing" textLength="159" x="1055.25" y="264.2">GodotPOCSArchitecture</text><line style="stroke:#00008B;stroke-width:1.0;" x1="832.5" x2="1409.5" y1="273.302" y2="273.302"/><rect fill="none" height="6" style="stroke:#000000;stroke-width:1.0;" width="6" x="839.5" y="285.336"/><text fill="#000000" font-family="Verdana" font-size="14" lengthAdjust="spacing" textLength="239" x="849.5" y="292.268">POCSServiceLocator _serviceLocator</text><line style="stroke:#00008B;stroke-width:1.0;" x1="832.5" x2="1409.5" y1="300.3699" y2="300.3699"/><ellipse cx="842.5" cy="315.4039" fill="#FFFFFF" rx="3" ry="3" style="stroke:#000000;stroke-width:1.0;"/><text fill="#000000" font-family="Verdana" font-size="14" lengthAdjust="spacing" textLength="55" x="849.5" y="319.3359">_Ready()</text><ellipse cx="842.5" cy="334.4718" fill="#FFFFFF" rx="3" ry="3" style="stroke:#000000;stroke-width:1.0;"/><text fill="#000000" font-family="Verdana" font-size="14" lengthAdjust="spacing" textLength="407" x="849.5" y="338.4038">PlaceBuildingFromGodot(Node2D building, Vector2I gridPos)</text><ellipse cx="842.5" cy="353.5397" fill="#FFFFFF" rx="3" ry="3" style="stroke:#000000;stroke-width:1.0;"/><text fill="#000000" font-family="Verdana" font-size="14" lengthAdjust="spacing" textLength="555" x="849.5" y="357.4717">ManipulateBuildingFromGodot(Node2D building, string action, Vector2I targetPos)</text><ellipse cx="842.5" cy="372.6076" fill="#FFFFFF" rx="3" ry="3" style="stroke:#000000;stroke-width:1.0;"/><text fill="#000000" font-family="Verdana" font-size="14" lengthAdjust="spacing" textLength="401" x="849.5" y="376.5396">FindPathFromGodot(Vector2I start, Vector2I end) : Vector2I[]</text><rect fill="#FFFFFF" height="6" style="stroke:#000000;stroke-width:1.0;" width="6" x="839.5" y="388.6756"/><text fill="#000000" font-family="Verdana" font-size="14" lengthAdjust="spacing" textLength="384" x="849.5" y="395.6075">AddBuildingToScene(Node2D building, Vector2I position)</text><rect fill="#FFFFFF" height="6" style="stroke:#000000;stroke-width:1.0;" width="6" x="839.5" y="407.7435"/><text fill="#000000" font-family="Verdana" font-size="14" lengthAdjust="spacing" textLength="403" x="849.5" y="414.6755">UpdateBuildingPosition(Node2D building, Vector2I position)</text><rect fill="#FFFFFF" height="6" style="stroke:#000000;stroke-width:1.0;" width="6" x="839.5" y="426.8114"/><text fill="#000000" font-family="Verdana" font-size="14" lengthAdjust="spacing" textLength="232" x="849.5" y="433.7434">RemoveFromScene(Node building)</text></g><!--class GodotPlacementController--><g id="elem_GodotPlacementController"><rect codeLine="18" fill="#ADD8E6" height="102.2717" id="GodotPlacementController" rx="2.5" ry="2.5" style="stroke:#00008B;stroke-width:1.0;" width="427" x="382.5" y="62.9641"/><ellipse cx="503.75" cy="77.4981" fill="#FFFFFF" rx="9" ry="9" style="stroke:#000000;stroke-width:1.0;"/><path d="M503.2188,84.4199 Q501.4688,84.4199 500.3281,83.6856 Q499.2031,82.9356 498.6406,81.5918 Q498.0938,80.2324 498.0938,78.4356 Q498.0938,76.4043 498.75,74.9512 Q499.4063,73.4981 500.6875,72.7168 Q501.9688,71.9356 503.8438,71.9356 Q504.7344,71.9356 505.4063,72.1231 Q506.0781,72.2949 506.7656,72.6387 L505.9531,74.6543 Q505.3281,74.3418 504.7813,74.2168 Q504.25,74.0918 503.7656,74.0918 Q502.5938,74.0918 501.8906,74.6231 Q501.1875,75.1543 500.8906,76.1074 Q500.5938,77.0606 500.5938,78.3262 Q500.5938,80.3418 501.3125,81.3106 Q502.0313,82.2637 503.625,82.2637 Q504.2188,82.2637 504.8438,82.1074 Q505.4688,81.9512 506.2969,81.5762 L506.2969,83.7949 Q505.5625,84.1074 504.7656,84.2637 Q503.9844,84.4199 503.2188,84.4199 Z " fill="#000000"/><text fill="#000000" font-family="Verdana" font-size="14" lengthAdjust="spacing" textLength="177" x="521.25" y="82.93">GodotPlacementController</text><line style="stroke:#00008B;stroke-width:1.0;" x1="383.5" x2="808.5" y1="92.032" y2="92.032"/><rect fill="none" height="6" style="stroke:#000000;stroke-width:1.0;" width="6" x="390.5" y="104.066"/><text fill="#000000" font-family="Verdana" font-size="14" lengthAdjust="spacing" textLength="206" x="400.5" y="110.998">GodotPOCSArchitecture? _pocs</text><line style="stroke:#00008B;stroke-width:1.0;" x1="383.5" x2="808.5" y1="119.0999" y2="119.0999"/><ellipse cx="393.5" cy="134.1339" fill="#FFFFFF" rx="3" ry="3" style="stroke:#000000;stroke-width:1.0;"/><text fill="#000000" font-family="Verdana" font-size="14" lengthAdjust="spacing" textLength="55" x="400.5" y="138.0659">_Ready()</text><ellipse cx="393.5" cy="153.2018" fill="#FFFFFF" rx="3" ry="3" style="stroke:#000000;stroke-width:1.0;"/><text fill="#000000" font-family="Verdana" font-size="14" lengthAdjust="spacing" textLength="403" x="400.5" y="157.1338">OnPlacementRequested(Node2D building, Vector2I gridPos)</text></g><!--class GodotManipulationController--><g id="elem_GodotManipulationController"><rect codeLine="24" fill="#ADD8E6" height="102.2717" id="GodotManipulationController" rx="2.5" ry="2.5" style="stroke:#00008B;stroke-width:1.0;" width="553" x="844.5" y="62.9641"/><ellipse cx="1018.75" cy="77.4981" fill="#FFFFFF" rx="9" ry="9" style="stroke:#000000;stroke-width:1.0;"/><path d="M1018.2188,84.4199 Q1016.4688,84.4199 1015.3281,83.6856 Q1014.2031,82.9356 1013.6406,81.5918 Q1013.0938,80.2324 1013.0938,78.4356 Q1013.0938,76.4043 1013.75,74.9512 Q1014.4063,73.4981 1015.6875,72.7168 Q1016.9688,71.9356 1018.8438,71.9356 Q1019.7344,71.9356 1020.4063,72.1231 Q1021.0781,72.2949 1021.7656,72.6387 L1020.9531,74.6543 Q1020.3281,74.3418 1019.7813,74.2168 Q1019.25,74.0918 1018.7656,74.0918 Q1017.5938,74.0918 1016.8906,74.6231 Q1016.1875,75.1543 1015.8906,76.1074 Q1015.5938,77.0606 1015.5938,78.3262 Q1015.5938,80.3418 1016.3125,81.3106 Q1017.0313,82.2637 1018.625,82.2637 Q1019.2188,82.2637 1019.8438,82.1074 Q1020.4688,81.9512 1021.2969,81.5762 L1021.2969,83.7949 Q1020.5625,84.1074 1019.7656,84.2637 Q1018.9844,84.4199 1018.2188,84.4199 Z " fill="#000000"/><text fill="#000000" font-family="Verdana" font-size="14" lengthAdjust="spacing" textLength="197" x="1036.25" y="82.93">GodotManipulationController</text><line style="stroke:#00008B;stroke-width:1.0;" x1="845.5" x2="1396.5" y1="92.032" y2="92.032"/><rect fill="none" height="6" style="stroke:#000000;stroke-width:1.0;" width="6" x="852.5" y="104.066"/><text fill="#000000" font-family="Verdana" font-size="14" lengthAdjust="spacing" textLength="206" x="862.5" y="110.998">GodotPOCSArchitecture? _pocs</text><line style="stroke:#00008B;stroke-width:1.0;" x1="845.5" x2="1396.5" y1="119.0999" y2="119.0999"/><ellipse cx="855.5" cy="134.1339" fill="#FFFFFF" rx="3" ry="3" style="stroke:#000000;stroke-width:1.0;"/><text fill="#000000" font-family="Verdana" font-size="14" lengthAdjust="spacing" textLength="55" x="862.5" y="138.0659">_Ready()</text><ellipse cx="855.5" cy="153.2018" fill="#FFFFFF" rx="3" ry="3" style="stroke:#000000;stroke-width:1.0;"/><text fill="#000000" font-family="Verdana" font-size="14" lengthAdjust="spacing" textLength="529" x="862.5" y="157.1338">OnManipulationRequested(Node2D building, string action, Vector2I targetPos)</text></g><!--class GodotTargetingController--><g id="elem_GodotTargetingController"><rect codeLine="30" fill="#ADD8E6" height="102.2717" id="GodotTargetingController" rx="2.5" ry="2.5" style="stroke:#00008B;stroke-width:1.0;" width="414" x="1433" y="62.9641"/><ellipse cx="1549.75" cy="77.4981" fill="#FFFFFF" rx="9" ry="9" style="stroke:#000000;stroke-width:1.0;"/><path d="M1549.2188,84.4199 Q1547.4688,84.4199 1546.3281,83.6856 Q1545.2031,82.9356 1544.6406,81.5918 Q1544.0938,80.2324 1544.0938,78.4356 Q1544.0938,76.4043 1544.75,74.9512 Q1545.4063,73.4981 1546.6875,72.7168 Q1547.9688,71.9356 1549.8438,71.9356 Q1550.7344,71.9356 1551.4063,72.1231 Q1552.0781,72.2949 1552.7656,72.6387 L1551.9531,74.6543 Q1551.3281,74.3418 1550.7813,74.2168 Q1550.25,74.0918 1549.7656,74.0918 Q1548.5938,74.0918 1547.8906,74.6231 Q1547.1875,75.1543 1546.8906,76.1074 Q1546.5938,77.0606 1546.5938,78.3262 Q1546.5938,80.3418 1547.3125,81.3106 Q1548.0313,82.2637 1549.625,82.2637 Q1550.2188,82.2637 1550.8438,82.1074 Q1551.4688,81.9512 1552.2969,81.5762 L1552.2969,83.7949 Q1551.5625,84.1074 1550.7656,84.2637 Q1549.9844,84.4199 1549.2188,84.4199 Z " fill="#000000"/><text fill="#000000" font-family="Verdana" font-size="14" lengthAdjust="spacing" textLength="173" x="1567.25" y="82.93">GodotTargetingController</text><line style="stroke:#00008B;stroke-width:1.0;" x1="1434" x2="1846" y1="92.032" y2="92.032"/><rect fill="none" height="6" style="stroke:#000000;stroke-width:1.0;" width="6" x="1441" y="104.066"/><text fill="#000000" font-family="Verdana" font-size="14" lengthAdjust="spacing" textLength="206" x="1451" y="110.998">GodotPOCSArchitecture? _pocs</text><line style="stroke:#00008B;stroke-width:1.0;" x1="1434" x2="1846" y1="119.0999" y2="119.0999"/><ellipse cx="1444" cy="134.1339" fill="#FFFFFF" rx="3" ry="3" style="stroke:#000000;stroke-width:1.0;"/><text fill="#000000" font-family="Verdana" font-size="14" lengthAdjust="spacing" textLength="55" x="1451" y="138.0659">_Ready()</text><ellipse cx="1444" cy="153.2018" fill="#FFFFFF" rx="3" ry="3" style="stroke:#000000;stroke-width:1.0;"/><text fill="#000000" font-family="Verdana" font-size="14" lengthAdjust="spacing" textLength="390" x="1451" y="157.1338">OnPathRequested(Vector2I start, Vector2I end) : Vector2I[]</text></g><!--class POCSServiceLocator--><g id="elem_POCSServiceLocator"><rect codeLine="37" fill="#ADD8E6" height="159.4754" id="POCSServiceLocator" rx="2.5" ry="2.5" style="stroke:#00008B;stroke-width:1.0;" width="343" x="475.5" y="520.8441"/><ellipse cx="576.75" cy="535.3781" fill="#FFFFFF" rx="9" ry="9" style="stroke:#000000;stroke-width:1.0;"/><path d="M576.2188,542.2999 Q574.4688,542.2999 573.3281,541.5656 Q572.2031,540.8156 571.6406,539.4718 Q571.0938,538.1124 571.0938,536.3156 Q571.0938,534.2843 571.75,532.8312 Q572.4063,531.3781 573.6875,530.5968 Q574.9688,529.8156 576.8438,529.8156 Q577.7344,529.8156 578.4063,530.0031 Q579.0781,530.1749 579.7656,530.5187 L578.9531,532.5343 Q578.3281,532.2218 577.7813,532.0968 Q577.25,531.9718 576.7656,531.9718 Q575.5938,531.9718 574.8906,532.5031 Q574.1875,533.0343 573.8906,533.9874 Q573.5938,534.9406 573.5938,536.2062 Q573.5938,538.2218 574.3125,539.1906 Q575.0313,540.1437 576.625,540.1437 Q577.2188,540.1437 577.8438,539.9874 Q578.4688,539.8312 579.2969,539.4562 L579.2969,541.6749 Q578.5625,541.9874 577.7656,542.1437 Q576.9844,542.2999 576.2188,542.2999 Z " fill="#000000"/><text fill="#000000" font-family="Verdana" font-size="14" lengthAdjust="spacing" textLength="133" x="594.25" y="540.81">POCSServiceLocator</text><line style="stroke:#00008B;stroke-width:1.0;" x1="476.5" x2="817.5" y1="549.912" y2="549.912"/><rect fill="none" height="6" style="stroke:#000000;stroke-width:1.0;" width="6" x="483.5" y="561.946"/><text fill="#000000" font-family="Verdana" font-size="14" lengthAdjust="spacing" textLength="165" x="493.5" y="568.878">ServiceRegistry _registry</text><line style="stroke:#00008B;stroke-width:1.0;" x1="476.5" x2="817.5" y1="576.9799" y2="576.9799"/><ellipse cx="486.5" cy="592.0139" fill="#FFFFFF" rx="3" ry="3" style="stroke:#000000;stroke-width:1.0;"/><text fill="#000000" font-family="Verdana" font-size="14" lengthAdjust="spacing" textLength="141" x="493.5" y="595.9459">POCSServiceLocator()</text><rect fill="#FFFFFF" height="6" style="stroke:#000000;stroke-width:1.0;" width="6" x="483.5" y="608.0818"/><text fill="#000000" font-family="Verdana" font-size="14" lengthAdjust="spacing" textLength="157" x="493.5" y="615.0138">InitializePOCSServices()</text><ellipse cx="486.5" cy="630.1497" fill="#FFFFFF" rx="3" ry="3" style="stroke:#000000;stroke-width:1.0;"/><text fill="#000000" font-family="Verdana" font-size="14" lengthAdjust="spacing" textLength="279" x="493.5" y="634.0817">GetPlacementService() : PlacementService</text><ellipse cx="486.5" cy="649.2176" fill="#FFFFFF" rx="3" ry="3" style="stroke:#000000;stroke-width:1.0;"/><text fill="#000000" font-family="Verdana" font-size="14" lengthAdjust="spacing" textLength="300" x="493.5" y="653.1496">GetTargetingService() : GridTargetingService</text><ellipse cx="486.5" cy="668.2856" fill="#FFFFFF" rx="3" ry="3" style="stroke:#000000;stroke-width:1.0;"/><text fill="#000000" font-family="Verdana" font-size="14" lengthAdjust="spacing" textLength="319" x="493.5" y="672.2175">GetManipulationService() : ManipulationService</text></g><!--class ServiceRegistry--><g id="elem_ServiceRegistry"><rect codeLine="46" fill="#ADD8E6" height="121.3396" id="ServiceRegistry" rx="2.5" ry="2.5" style="stroke:#00008B;stroke-width:1.0;" width="253" x="661.5" y="759.3141"/><ellipse cx="732.75" cy="773.8481" fill="#FFFFFF" rx="9" ry="9" style="stroke:#000000;stroke-width:1.0;"/><path d="M732.2188,780.7699 Q730.4688,780.7699 729.3281,780.0356 Q728.2031,779.2856 727.6406,777.9418 Q727.0938,776.5824 727.0938,774.7856 Q727.0938,772.7543 727.75,771.3012 Q728.4063,769.8481 729.6875,769.0668 Q730.9688,768.2856 732.8438,768.2856 Q733.7344,768.2856 734.4063,768.4731 Q735.0781,768.6449 735.7656,768.9887 L734.9531,771.0043 Q734.3281,770.6918 733.7813,770.5668 Q733.25,770.4418 732.7656,770.4418 Q731.5938,770.4418 730.8906,770.9731 Q730.1875,771.5043 729.8906,772.4574 Q729.5938,773.4106 729.5938,774.6762 Q729.5938,776.6918 730.3125,777.6606 Q731.0313,778.6137 732.625,778.6137 Q733.2188,778.6137 733.8438,778.4574 Q734.4688,778.3012 735.2969,777.9262 L735.2969,780.1449 Q734.5625,780.4574 733.7656,780.6137 Q732.9844,780.7699 732.2188,780.7699 Z " fill="#000000"/><text fill="#000000" font-family="Verdana" font-size="14" lengthAdjust="spacing" textLength="103" x="750.25" y="779.28">ServiceRegistry</text><line style="stroke:#00008B;stroke-width:1.0;" x1="662.5" x2="913.5" y1="788.382" y2="788.382"/><rect fill="none" height="6" style="stroke:#000000;stroke-width:1.0;" width="6" x="669.5" y="800.416"/><text fill="#000000" font-family="Verdana" font-size="14" lengthAdjust="spacing" textLength="229" x="679.5" y="807.348">Dictionary&lt;Type, object&gt; _services</text><line style="stroke:#00008B;stroke-width:1.0;" x1="662.5" x2="913.5" y1="815.4499" y2="815.4499"/><ellipse cx="672.5" cy="830.4839" fill="#FFFFFF" rx="3" ry="3" style="stroke:#000000;stroke-width:1.0;"/><text fill="#000000" font-family="Verdana" font-size="14" lengthAdjust="spacing" textLength="221" x="679.5" y="834.4159">RegisterSingleton&lt;T&gt;(T instance)</text><ellipse cx="672.5" cy="849.5518" fill="#FFFFFF" rx="3" ry="3" style="stroke:#000000;stroke-width:1.0;"/><text fill="#000000" font-family="Verdana" font-size="14" lengthAdjust="spacing" textLength="129" x="679.5" y="853.4838">GetService&lt;T&gt;() : T?</text><ellipse cx="672.5" cy="868.6197" fill="#FFFFFF" rx="3" ry="3" style="stroke:#000000;stroke-width:1.0;"/><text fill="#000000" font-family="Verdana" font-size="14" lengthAdjust="spacing" textLength="61" x="679.5" y="872.5517">Dispose()</text></g><!--class PlacementService--><g id="elem_PlacementService"><rect codeLine="53" fill="#ADD8E6" height="121.3396" id="PlacementService" rx="2.5" ry="2.5" style="stroke:#00008B;stroke-width:1.0;" width="456" x="12" y="969.1941"/><ellipse cx="177.25" cy="983.7281" fill="#FFFFFF" rx="9" ry="9" style="stroke:#000000;stroke-width:1.0;"/><path d="M176.7188,990.6499 Q174.9688,990.6499 173.8281,989.9156 Q172.7031,989.1656 172.1406,987.8218 Q171.5938,986.4624 171.5938,984.6656 Q171.5938,982.6343 172.25,981.1812 Q172.9063,979.7281 174.1875,978.9468 Q175.4688,978.1656 177.3438,978.1656 Q178.2344,978.1656 178.9063,978.3531 Q179.5781,978.5249 180.2656,978.8687 L179.4531,980.8843 Q178.8281,980.5718 178.2813,980.4468 Q177.75,980.3218 177.2656,980.3218 Q176.0938,980.3218 175.3906,980.8531 Q174.6875,981.3843 174.3906,982.3374 Q174.0938,983.2906 174.0938,984.5562 Q174.0938,986.5718 174.8125,987.5406 Q175.5313,988.4937 177.125,988.4937 Q177.7188,988.4937 178.3438,988.3374 Q178.9688,988.1812 179.7969,987.8062 L179.7969,990.0249 Q179.0625,990.3374 178.2656,990.4937 Q177.4844,990.6499 176.7188,990.6499 Z " fill="#000000"/><text fill="#000000" font-family="Verdana" font-size="14" lengthAdjust="spacing" textLength="118" x="194.75" y="989.16">PlacementService</text><line style="stroke:#00008B;stroke-width:1.0;" x1="13" x2="467" y1="998.262" y2="998.262"/><ellipse cx="23" cy="1013.296" fill="none" rx="3" ry="3" style="stroke:#000000;stroke-width:1.0;"/><text fill="#000000" font-family="Verdana" font-size="14" lengthAdjust="spacing" textLength="86" x="30" y="1017.228">bool IsReady</text><line style="stroke:#00008B;stroke-width:1.0;" x1="13" x2="467" y1="1025.3299" y2="1025.3299"/><ellipse cx="23" cy="1040.3639" fill="#FFFFFF" rx="3" ry="3" style="stroke:#000000;stroke-width:1.0;"/><text fill="#000000" font-family="Verdana" font-size="14" lengthAdjust="spacing" textLength="406" x="30" y="1044.2959">PlaceBuilding(int gridX, int gridY, string buildingType) : bool</text><ellipse cx="23" cy="1059.4318" fill="#FFFFFF" rx="3" ry="3" style="stroke:#000000;stroke-width:1.0;"/><text fill="#000000" font-family="Verdana" font-size="14" lengthAdjust="spacing" textLength="432" x="30" y="1063.3638">CanPlaceBuilding(int gridX, int gridY, string buildingType) : bool</text><ellipse cx="23" cy="1078.4997" fill="#FFFFFF" rx="3" ry="3" style="stroke:#000000;stroke-width:1.0;"/><text fill="#000000" font-family="Verdana" font-size="14" lengthAdjust="spacing" textLength="61" x="30" y="1082.4317">Dispose()</text></g><!--class GridTargetingService--><g id="elem_GridTargetingService"><rect codeLine="60" fill="#ADD8E6" height="121.3396" id="GridTargetingService" rx="2.5" ry="2.5" style="stroke:#00008B;stroke-width:1.0;" width="389" x="950.5" y="969.1941"/><ellipse cx="1069.75" cy="983.7281" fill="#FFFFFF" rx="9" ry="9" style="stroke:#000000;stroke-width:1.0;"/><path d="M1069.2188,990.6499 Q1067.4688,990.6499 1066.3281,989.9156 Q1065.2031,989.1656 1064.6406,987.8218 Q1064.0938,986.4624 1064.0938,984.6656 Q1064.0938,982.6343 1064.75,981.1812 Q1065.4063,979.7281 1066.6875,978.9468 Q1067.9688,978.1656 1069.8438,978.1656 Q1070.7344,978.1656 1071.4063,978.3531 Q1072.0781,978.5249 1072.7656,978.8687 L1071.9531,980.8843 Q1071.3281,980.5718 1070.7813,980.4468 Q1070.25,980.3218 1069.7656,980.3218 Q1068.5938,980.3218 1067.8906,980.8531 Q1067.1875,981.3843 1066.8906,982.3374 Q1066.5938,983.2906 1066.5938,984.5562 Q1066.5938,986.5718 1067.3125,987.5406 Q1068.0313,988.4937 1069.625,988.4937 Q1070.2188,988.4937 1070.8438,988.3374 Q1071.4688,988.1812 1072.2969,987.8062 L1072.2969,990.0249 Q1071.5625,990.3374 1070.7656,990.4937 Q1069.9844,990.6499 1069.2188,990.6499 Z " fill="#000000"/><text fill="#000000" font-family="Verdana" font-size="14" lengthAdjust="spacing" textLength="143" x="1087.25" y="989.16">GridTargetingService</text><line style="stroke:#00008B;stroke-width:1.0;" x1="951.5" x2="1338.5" y1="998.262" y2="998.262"/><ellipse cx="961.5" cy="1013.296" fill="none" rx="3" ry="3" style="stroke:#000000;stroke-width:1.0;"/><text fill="#000000" font-family="Verdana" font-size="14" lengthAdjust="spacing" textLength="86" x="968.5" y="1017.228">bool IsReady</text><line style="stroke:#00008B;stroke-width:1.0;" x1="951.5" x2="1338.5" y1="1025.3299" y2="1025.3299"/><ellipse cx="961.5" cy="1040.3639" fill="#FFFFFF" rx="3" ry="3" style="stroke:#000000;stroke-width:1.0;"/><text fill="#000000" font-family="Verdana" font-size="14" lengthAdjust="spacing" textLength="271" x="968.5" y="1044.2959">IsValidPosition(int gridX, int gridY) : bool</text><ellipse cx="961.5" cy="1059.4318" fill="#FFFFFF" rx="3" ry="3" style="stroke:#000000;stroke-width:1.0;"/><text fill="#000000" font-family="Verdana" font-size="14" lengthAdjust="spacing" textLength="365" x="968.5" y="1063.3638">FindPath(int startX, int startY, int endX, int endY) : int[]</text><ellipse cx="961.5" cy="1078.4997" fill="#FFFFFF" rx="3" ry="3" style="stroke:#000000;stroke-width:1.0;"/><text fill="#000000" font-family="Verdana" font-size="14" lengthAdjust="spacing" textLength="61" x="968.5" y="1082.4317">Dispose()</text></g><!--class ManipulationService--><g id="elem_ManipulationService"><rect codeLine="67" fill="#ADD8E6" height="140.4075" id="ManipulationService" rx="2.5" ry="2.5" style="stroke:#00008B;stroke-width:1.0;" width="413" x="502.5" y="959.6541"/><ellipse cx="636.25" cy="974.1881" fill="#FFFFFF" rx="9" ry="9" style="stroke:#000000;stroke-width:1.0;"/><path d="M635.7188,981.1099 Q633.9688,981.1099 632.8281,980.3756 Q631.7031,979.6256 631.1406,978.2818 Q630.5938,976.9224 630.5938,975.1256 Q630.5938,973.0943 631.25,971.6412 Q631.9063,970.1881 633.1875,969.4068 Q634.4688,968.6256 636.3438,968.6256 Q637.2344,968.6256 637.9063,968.8131 Q638.5781,968.9849 639.2656,969.3287 L638.4531,971.3443 Q637.8281,971.0318 637.2813,970.9068 Q636.75,970.7818 636.2656,970.7818 Q635.0938,970.7818 634.3906,971.3131 Q633.6875,971.8443 633.3906,972.7974 Q633.0938,973.7506 633.0938,975.0162 Q633.0938,977.0318 633.8125,978.0006 Q634.5313,978.9537 636.125,978.9537 Q636.7188,978.9537 637.3438,978.7974 Q637.9688,978.6412 638.7969,978.2662 L638.7969,980.4849 Q638.0625,980.7974 637.2656,980.9537 Q636.4844,981.1099 635.7188,981.1099 Z " fill="#000000"/><text fill="#000000" font-family="Verdana" font-size="14" lengthAdjust="spacing" textLength="138" x="653.75" y="979.62">ManipulationService</text><line style="stroke:#00008B;stroke-width:1.0;" x1="503.5" x2="914.5" y1="988.722" y2="988.722"/><ellipse cx="513.5" cy="1003.756" fill="none" rx="3" ry="3" style="stroke:#000000;stroke-width:1.0;"/><text fill="#000000" font-family="Verdana" font-size="14" lengthAdjust="spacing" textLength="86" x="520.5" y="1007.688">bool IsReady</text><line style="stroke:#00008B;stroke-width:1.0;" x1="503.5" x2="914.5" y1="1015.7899" y2="1015.7899"/><ellipse cx="513.5" cy="1030.8239" fill="#FFFFFF" rx="3" ry="3" style="stroke:#000000;stroke-width:1.0;"/><text fill="#000000" font-family="Verdana" font-size="14" lengthAdjust="spacing" textLength="389" x="520.5" y="1034.7559">MoveBuilding(string buildingId, int newX, int newY) : bool</text><ellipse cx="513.5" cy="1049.8918" fill="#FFFFFF" rx="3" ry="3" style="stroke:#000000;stroke-width:1.0;"/><text fill="#000000" font-family="Verdana" font-size="14" lengthAdjust="spacing" textLength="349" x="520.5" y="1053.8238">RotateBuilding(string buildingId, int degrees) : bool</text><ellipse cx="513.5" cy="1068.9597" fill="#FFFFFF" rx="3" ry="3" style="stroke:#000000;stroke-width:1.0;"/><text fill="#000000" font-family="Verdana" font-size="14" lengthAdjust="spacing" textLength="274" x="520.5" y="1072.8917">RemoveBuilding(string buildingId) : bool</text><ellipse cx="513.5" cy="1088.0276" fill="#FFFFFF" rx="3" ry="3" style="stroke:#000000;stroke-width:1.0;"/><text fill="#000000" font-family="Verdana" font-size="14" lengthAdjust="spacing" textLength="61" x="520.5" y="1091.9596">Dispose()</text></g><!--class Node2D--><g id="elem_Node2D"><rect codeLine="76" fill="#ADD8E6" height="121.3396" id="Node2D" rx="2.5" ry="2.5" style="stroke:#00008B;stroke-width:1.0;" width="167" x="1037.5" y="539.9141"/><ellipse cx="1090.25" cy="554.4481" fill="#FFFFFF" rx="9" ry="9" style="stroke:#000000;stroke-width:1.0;"/><path d="M1089.7188,561.3699 Q1087.9688,561.3699 1086.8281,560.6356 Q1085.7031,559.8856 1085.1406,558.5418 Q1084.5938,557.1824 1084.5938,555.3856 Q1084.5938,553.3543 1085.25,551.9012 Q1085.9063,550.4481 1087.1875,549.6668 Q1088.4688,548.8856 1090.3438,548.8856 Q1091.2344,548.8856 1091.9063,549.0731 Q1092.5781,549.2449 1093.2656,549.5887 L1092.4531,551.6043 Q1091.8281,551.2918 1091.2813,551.1668 Q1090.75,551.0418 1090.2656,551.0418 Q1089.0938,551.0418 1088.3906,551.5731 Q1087.6875,552.1043 1087.3906,553.0574 Q1087.0938,554.0106 1087.0938,555.2762 Q1087.0938,557.2918 1087.8125,558.2606 Q1088.5313,559.2137 1090.125,559.2137 Q1090.7188,559.2137 1091.3438,559.0574 Q1091.9688,558.9012 1092.7969,558.5262 L1092.7969,560.7449 Q1092.0625,561.0574 1091.2656,561.2137 Q1090.4844,561.3699 1089.7188,561.3699 Z " fill="#000000"/><text fill="#000000" font-family="Verdana" font-size="14" lengthAdjust="spacing" textLength="54" x="1107.75" y="559.88">Node2D</text><line style="stroke:#00008B;stroke-width:1.0;" x1="1038.5" x2="1203.5" y1="568.982" y2="568.982"/><ellipse cx="1048.5" cy="584.016" fill="none" rx="3" ry="3" style="stroke:#000000;stroke-width:1.0;"/><text fill="#000000" font-family="Verdana" font-size="14" lengthAdjust="spacing" textLength="112" x="1055.5" y="587.948">Vector2I Position</text><line style="stroke:#00008B;stroke-width:1.0;" x1="1038.5" x2="1203.5" y1="596.0499" y2="596.0499"/><ellipse cx="1048.5" cy="611.0839" fill="#FFFFFF" rx="3" ry="3" style="stroke:#000000;stroke-width:1.0;"/><text fill="#000000" font-family="Verdana" font-size="14" lengthAdjust="spacing" textLength="129" x="1055.5" y="615.0159">GetParent() : Node?</text><ellipse cx="1048.5" cy="630.1518" fill="#FFFFFF" rx="3" ry="3" style="stroke:#000000;stroke-width:1.0;"/><text fill="#000000" font-family="Verdana" font-size="14" lengthAdjust="spacing" textLength="143" x="1055.5" y="634.0838">AddChild(Node child)</text><ellipse cx="1048.5" cy="649.2197" fill="#FFFFFF" rx="3" ry="3" style="stroke:#000000;stroke-width:1.0;"/><text fill="#000000" font-family="Verdana" font-size="14" lengthAdjust="spacing" textLength="82" x="1055.5" y="653.1517">QueueFree()</text></g><!--class Node--><g id="elem_Node"><rect codeLine="83" fill="#ADD8E6" height="121.3396" id="Node" rx="2.5" ry="2.5" style="stroke:#00008B;stroke-width:1.0;" width="344" x="1239" y="539.9141"/><ellipse cx="1389.25" cy="554.4481" fill="#FFFFFF" rx="9" ry="9" style="stroke:#000000;stroke-width:1.0;"/><path d="M1388.7188,561.3699 Q1386.9688,561.3699 1385.8281,560.6356 Q1384.7031,559.8856 1384.1406,558.5418 Q1383.5938,557.1824 1383.5938,555.3856 Q1383.5938,553.3543 1384.25,551.9012 Q1384.9063,550.4481 1386.1875,549.6668 Q1387.4688,548.8856 1389.3438,548.8856 Q1390.2344,548.8856 1390.9063,549.0731 Q1391.5781,549.2449 1392.2656,549.5887 L1391.4531,551.6043 Q1390.8281,551.2918 1390.2813,551.1668 Q1389.75,551.0418 1389.2656,551.0418 Q1388.0938,551.0418 1387.3906,551.5731 Q1386.6875,552.1043 1386.3906,553.0574 Q1386.0938,554.0106 1386.0938,555.2762 Q1386.0938,557.2918 1386.8125,558.2606 Q1387.5313,559.2137 1389.125,559.2137 Q1389.7188,559.2137 1390.3438,559.0574 Q1390.9688,558.9012 1391.7969,558.5262 L1391.7969,560.7449 Q1391.0625,561.0574 1390.2656,561.2137 Q1389.4844,561.3699 1388.7188,561.3699 Z " fill="#000000"/><text fill="#000000" font-family="Verdana" font-size="14" lengthAdjust="spacing" textLength="36" x="1406.75" y="559.88">Node</text><line style="stroke:#00008B;stroke-width:1.0;" x1="1240" x2="1582" y1="568.982" y2="568.982"/><line style="stroke:#00008B;stroke-width:1.0;" x1="1240" x2="1582" y1="576.982" y2="576.982"/><ellipse cx="1250" cy="592.016" fill="#FFFFFF" rx="3" ry="3" style="stroke:#000000;stroke-width:1.0;"/><text fill="#000000" font-family="Verdana" font-size="14" lengthAdjust="spacing" textLength="129" x="1257" y="595.948">GetParent() : Node?</text><ellipse cx="1250" cy="611.0839" fill="#FFFFFF" rx="3" ry="3" style="stroke:#000000;stroke-width:1.0;"/><text fill="#000000" font-family="Verdana" font-size="14" lengthAdjust="spacing" textLength="169" x="1257" y="615.0159">RemoveChild(Node child)</text><ellipse cx="1250" cy="630.1518" fill="#FFFFFF" rx="3" ry="3" style="stroke:#000000;stroke-width:1.0;"/><text fill="#000000" font-family="Verdana" font-size="14" lengthAdjust="spacing" textLength="82" x="1257" y="634.0838">QueueFree()</text><ellipse cx="1250" cy="649.2197" fill="#FFFFFF" rx="3" ry="3" style="stroke:#000000;stroke-width:1.0;"/><text fill="#000000" font-family="Verdana" font-size="14" lengthAdjust="spacing" textLength="320" x="1257" y="653.1517">GetMeta(string key, string defaultValue) : string</text></g><!--class Vector2I--><g id="elem_Vector2I"><rect codeLine="90" fill="#ADD8E6" height="83.2038" id="Vector2I" rx="2.5" ry="2.5" style="stroke:#00008B;stroke-width:1.0;" width="83" x="1882.5" y="72.4941"/><ellipse cx="1895.5" cy="87.0281" fill="#FFFFFF" rx="9" ry="9" style="stroke:#000000;stroke-width:1.0;"/><path d="M1894.9688,93.9499 Q1893.2188,93.9499 1892.0781,93.2156 Q1890.9531,92.4656 1890.3906,91.1218 Q1889.8438,89.7624 1889.8438,87.9656 Q1889.8438,85.9343 1890.5,84.4812 Q1891.1563,83.0281 1892.4375,82.2468 Q1893.7188,81.4656 1895.5938,81.4656 Q1896.4844,81.4656 1897.1563,81.6531 Q1897.8281,81.8249 1898.5156,82.1687 L1897.7031,84.1843 Q1897.0781,83.8718 1896.5313,83.7468 Q1896,83.6218 1895.5156,83.6218 Q1894.3438,83.6218 1893.6406,84.1531 Q1892.9375,84.6843 1892.6406,85.6374 Q1892.3438,86.5906 1892.3438,87.8562 Q1892.3438,89.8718 1893.0625,90.8406 Q1893.7813,91.7937 1895.375,91.7937 Q1895.9688,91.7937 1896.5938,91.6374 Q1897.2188,91.4812 1898.0469,91.1062 L1898.0469,93.3249 Q1897.3125,93.6374 1896.5156,93.7937 Q1895.7344,93.9499 1894.9688,93.9499 Z " fill="#000000"/><text fill="#000000" font-family="Verdana" font-size="14" lengthAdjust="spacing" textLength="55" x="1907.5" y="92.46">Vector2I</text><line style="stroke:#00008B;stroke-width:1.0;" x1="1883.5" x2="1964.5" y1="101.562" y2="101.562"/><ellipse cx="1893.5" cy="116.596" fill="none" rx="3" ry="3" style="stroke:#000000;stroke-width:1.0;"/><text fill="#000000" font-family="Verdana" font-size="14" lengthAdjust="spacing" textLength="30" x="1900.5" y="120.528">int X</text><ellipse cx="1893.5" cy="135.6639" fill="none" rx="3" ry="3" style="stroke:#000000;stroke-width:1.0;"/><text fill="#000000" font-family="Verdana" font-size="14" lengthAdjust="spacing" textLength="30" x="1900.5" y="139.5959">int Y</text><line style="stroke:#00008B;stroke-width:1.0;" x1="1883.5" x2="1964.5" y1="147.6979" y2="147.6979"/></g><g id="elem_GMN27"><path d="M1445.5,311.4741 L1445.5,339.0341 L1410.88,343.0341 L1445.5,347.0341 L1445.5,374.5922 A0,0 0 0 0 1445.5,374.5922 L1616.5,374.5922 A0,0 0 0 0 1616.5,374.5922 L1616.5,321.4741 L1606.5,311.4741 L1445.5,311.4741 A0,0 0 0 0 1445.5,311.4741 " fill="#90EE90" style="stroke:#006400;stroke-width:1.0;"/><path d="M1606.5,311.4741 L1606.5,321.4741 L1616.5,321.4741 L1606.5,311.4741 " fill="#90EE90" style="stroke:#006400;stroke-width:1.0;"/><text fill="#000000" font-family="Verdana" font-size="13" font-weight="bold" lengthAdjust="spacing" textLength="106" x="1451.5" y="330.3711">Main Entry Point</text><text fill="#000000" font-family="Verdana" font-size="13" lengthAdjust="spacing" textLength="150" x="1451.5" y="348.0771">Bridges Godot scene tree</text><text fill="#000000" font-family="Verdana" font-size="13" lengthAdjust="spacing" textLength="126" x="1451.5" y="365.7831">with pure C# services</text></g><g id="elem_GMN30"><path d="M853,569.0241 L853,596.5841 L818.78,600.5841 L853,604.5841 L853,632.1422 A0,0 0 0 0 853,632.1422 L1003,632.1422 A0,0 0 0 0 1003,632.1422 L1003,579.0241 L993,569.0241 L853,569.0241 A0,0 0 0 0 853,569.0241 " fill="#90EE90" style="stroke:#006400;stroke-width:1.0;"/><path d="M993,569.0241 L993,579.0241 L1003,579.0241 L993,569.0241 " fill="#90EE90" style="stroke:#006400;stroke-width:1.0;"/><text fill="#000000" font-family="Verdana" font-size="13" font-weight="bold" lengthAdjust="spacing" textLength="93" x="859" y="587.9211">Service Bridge</text><text fill="#000000" font-family="Verdana" font-size="13" lengthAdjust="spacing" textLength="129" x="859" y="605.6271">Creates and manages</text><text fill="#000000" font-family="Verdana" font-size="13" lengthAdjust="spacing" textLength="97" x="859" y="623.3331">pure C# services</text></g><g id="elem_GMN33"><path d="M155.5,1161.0641 L155.5,1224.1822 A0,0 0 0 0 155.5,1224.1822 L324.5,1224.1822 A0,0 0 0 0 324.5,1224.1822 L324.5,1171.0641 L314.5,1161.0641 L244,1161.0641 L240,1090.7241 L236,1161.0641 L155.5,1161.0641 A0,0 0 0 0 155.5,1161.0641 " fill="#90EE90" style="stroke:#006400;stroke-width:1.0;"/><path d="M314.5,1161.0641 L314.5,1171.0641 L324.5,1171.0641 L314.5,1161.0641 " fill="#90EE90" style="stroke:#006400;stroke-width:1.0;"/><text fill="#000000" font-family="Verdana" font-size="13" font-weight="bold" lengthAdjust="spacing" textLength="147" x="161.5" y="1179.9611">Pure C# Business Logic</text><text fill="#000000" font-family="Verdana" font-size="13" lengthAdjust="spacing" textLength="145" x="161.5" y="1197.6671">No Godot dependencies</text><text fill="#000000" font-family="Verdana" font-size="13" lengthAdjust="spacing" textLength="148" x="161.5" y="1215.3731">Cross-engine compatible</text></g><!--link GodotPOCSArchitecture to POCSServiceLocator--><g id="link_GodotPOCSArchitecture_POCSServiceLocator"><path codeLine="96" d="M938.76,442.2941 C890.74,468.1741 844.8411,492.9163 798.9611,517.6563 " fill="none" id="GodotPOCSArchitecture-to-POCSServiceLocator" style="stroke:#000000;stroke-width:1.0;"/><polygon fill="#000000" points="793.68,520.5041,803.5002,519.7532,798.0809,518.131,799.7032,512.7117,793.68,520.5041" style="stroke:#000000;stroke-width:1.0;"/><text fill="#000000" font-family="Verdana" font-size="13" lengthAdjust="spacing" textLength="27" x="870.79" y="486.7411">uses</text></g><!--link GodotPOCSArchitecture to Node2D--><g id="link_GodotPOCSArchitecture_Node2D"><path codeLine="97" d="M1121,442.1041 C1121,474.9041 1121,504.4641 1121,533.4741 " fill="none" id="GodotPOCSArchitecture-to-Node2D" style="stroke:#000000;stroke-width:1.0;"/><polygon fill="#000000" points="1121,539.4741,1125,530.4741,1121,534.4741,1117,530.4741,1121,539.4741" style="stroke:#000000;stroke-width:1.0;"/><text fill="#000000" font-family="Verdana" font-size="13" lengthAdjust="spacing" textLength="74" x="1122" y="486.7411">manipulates</text></g><!--link GodotPOCSArchitecture to Node--><g id="link_GodotPOCSArchitecture_Node"><path codeLine="98" d="M1232.29,442.1041 C1269.51,474.9041 1305.3579,506.4979 1338.2879,535.5079 " fill="none" id="GodotPOCSArchitecture-to-Node" style="stroke:#000000;stroke-width:1.0;"/><polygon fill="#000000" points="1342.79,539.4741,1338.6809,530.5234,1339.0382,536.1689,1333.3927,536.5262,1342.79,539.4741" style="stroke:#000000;stroke-width:1.0;"/><text fill="#000000" font-family="Verdana" font-size="13" lengthAdjust="spacing" textLength="52" x="1284.36" y="486.7411">removes</text></g><!--link GodotPlacementController to GodotPOCSArchitecture--><g id="link_GodotPlacementController_GodotPOCSArchitecture"><path codeLine="100" d="M712.84,165.6041 C766.17,188.6541 825.7224,214.4038 888.1024,241.3638 " fill="none" id="GodotPlacementController-to-GodotPOCSArchitecture" style="stroke:#000000;stroke-width:1.0;"/><polygon fill="#000000" points="893.61,243.7441,886.9355,236.5018,889.0203,241.7605,883.7617,243.8453,893.61,243.7441" style="stroke:#000000;stroke-width:1.0;"/><text fill="#000000" font-family="Verdana" font-size="13" lengthAdjust="spacing" textLength="74" x="812.48" y="210.1311">delegates to</text></g><!--link GodotManipulationController to GodotPOCSArchitecture--><g id="link_GodotManipulationController_GodotPOCSArchitecture"><path codeLine="101" d="M1121,165.4641 C1121,188.5741 1121,210.8141 1121,237.8641 " fill="none" id="GodotManipulationController-to-GodotPOCSArchitecture" style="stroke:#000000;stroke-width:1.0;"/><polygon fill="#000000" points="1121,243.8641,1125,234.8641,1121,238.8641,1117,234.8641,1121,243.8641" style="stroke:#000000;stroke-width:1.0;"/><text fill="#000000" font-family="Verdana" font-size="13" lengthAdjust="spacing" textLength="74" x="1122" y="210.1311">delegates to</text></g><!--link GodotTargetingController to GodotPOCSArchitecture--><g id="link_GodotTargetingController_GodotPOCSArchitecture"><path codeLine="102" d="M1524.49,165.6041 C1471.78,188.6541 1412.9475,214.3804 1351.2875,241.3404 " fill="none" id="GodotTargetingController-to-GodotPOCSArchitecture" style="stroke:#000000;stroke-width:1.0;"/><polygon fill="#000000" points="1345.79,243.7441,1355.6387,243.8035,1350.3712,241.741,1352.4337,236.4736,1345.79,243.7441" style="stroke:#000000;stroke-width:1.0;"/><text fill="#000000" font-family="Verdana" font-size="13" lengthAdjust="spacing" textLength="74" x="1443.25" y="210.1311">delegates to</text></g><!--link POCSServiceLocator to ServiceRegistry--><g id="link_POCSServiceLocator_ServiceRegistry"><path codeLine="104" d="M698.3,680.6841 C715.07,706.5441 730.1554,729.79 745.8554,754 " fill="none" id="POCSServiceLocator-to-ServiceRegistry" style="stroke:#000000;stroke-width:1.0;"/><polygon fill="#000000" points="749.12,759.0341,747.5792,749.3065,746.3995,754.839,740.867,753.6593,749.12,759.0341" style="stroke:#000000;stroke-width:1.0;"/><text fill="#000000" font-family="Verdana" font-size="13" lengthAdjust="spacing" textLength="27" x="726.94" y="725.2111">uses</text></g><!--link POCSServiceLocator to PlacementService--><g id="link_POCSServiceLocator_PlacementService"><path codeLine="105" d="M571.88,680.4541 C492.52,763.7641 373.278,888.9393 301.428,964.3793 " fill="none" id="POCSServiceLocator-to-PlacementService" style="stroke:#000000;stroke-width:1.0;"/><polygon fill="#000000" points="297.29,968.7241,306.3935,964.9656,300.7383,965.1035,300.6005,959.4483,297.29,968.7241" style="stroke:#000000;stroke-width:1.0;"/><text fill="#000000" font-family="Verdana" font-size="13" lengthAdjust="spacing" textLength="43" x="491.6" y="825.3811">creates</text></g><!--link POCSServiceLocator to GridTargetingService--><g id="link_POCSServiceLocator_GridTargetingService"><path codeLine="106" d="M816.24,680.8041 C856.23,703.3341 897.29,729.8641 932,759.3141 C1004.41,820.7841 1065.8642,905.0704 1104.4642,963.7904 " fill="none" id="POCSServiceLocator-to-GridTargetingService" style="stroke:#000000;stroke-width:1.0;"/><polygon fill="#000000" points="1107.76,968.8041,1106.1588,959.0863,1105.0135,964.626,1099.4738,963.4807,1107.76,968.8041" style="stroke:#000000;stroke-width:1.0;"/><text fill="#000000" font-family="Verdana" font-size="13" lengthAdjust="spacing" textLength="43" x="1043.1" y="825.3811">creates</text></g><!--link POCSServiceLocator to ManipulationService--><g id="link_POCSServiceLocator_ManipulationService"><path codeLine="107" d="M612.43,680.7441 C587.72,749.7541 564.94,850.8741 603,929.6541 C608.04,940.0941 610.9028,945.3486 618.4228,954.5486 " fill="none" id="POCSServiceLocator-to-ManipulationService" style="stroke:#000000;stroke-width:1.0;"/><polygon fill="#000000" points="622.22,959.1941,619.6212,949.6943,619.0556,955.3228,613.4271,954.7573,622.22,959.1941" style="stroke:#000000;stroke-width:1.0;"/><text fill="#000000" font-family="Verdana" font-size="13" lengthAdjust="spacing" textLength="43" x="590.91" y="825.3811">creates</text></g><!--link ServiceRegistry to PlacementService--><g id="link_ServiceRegistry_PlacementService"><path codeLine="109" d="M661.14,870.2541 C651.96,873.7841 642.84,877.2841 634,880.6541 C557.36,909.9141 477.7978,939.9068 406.2978,966.7268 " fill="none" id="ServiceRegistry-to-PlacementService" style="stroke:#000000;stroke-width:1.0;"/><polygon fill="#000000" points="400.68,968.8341,410.5115,969.4184,405.3615,967.0781,407.7018,961.928,400.68,968.8341" style="stroke:#000000;stroke-width:1.0;"/><text fill="#000000" font-family="Verdana" font-size="13" lengthAdjust="spacing" textLength="55" x="548.77" y="925.5511">manages</text></g><!--link ServiceRegistry to GridTargetingService--><g id="link_ServiceRegistry_GridTargetingService"><path codeLine="110" d="M891.26,881.1141 C938.62,908.6941 989.455,938.2949 1036.785,965.8549 " fill="none" id="ServiceRegistry-to-GridTargetingService" style="stroke:#000000;stroke-width:1.0;"/><polygon fill="#000000" points="1041.97,968.8741,1036.2053,960.8886,1037.6492,966.3581,1032.1797,967.802,1041.97,968.8741" style="stroke:#000000;stroke-width:1.0;"/><text fill="#000000" font-family="Verdana" font-size="13" lengthAdjust="spacing" textLength="55" x="967.5" y="925.5511">manages</text></g><!--link ServiceRegistry to ManipulationService--><g id="link_ServiceRegistry_ManipulationService"><path codeLine="111" d="M765.15,881.1141 C755.85,905.5741 747.1815,928.3955 737.5515,953.7355 " fill="none" id="ServiceRegistry-to-ManipulationService" style="stroke:#000000;stroke-width:1.0;"/><polygon fill="#000000" points="735.42,959.3441,742.3563,952.3521,737.1962,954.6702,734.8781,949.5102,735.42,959.3441" style="stroke:#000000;stroke-width:1.0;"/><text fill="#000000" font-family="Verdana" font-size="13" lengthAdjust="spacing" textLength="55" x="754.23" y="925.5511">manages</text></g><!--SRC=[hLPTRzis57tNhxZ3WCrnuvS-6aMAs5a30qdgELwHO1W2MhgHESkaHb9DlQB_VPSKzM6PSbnqJwR9-t7kFPU7-iciSOkGPuoBA3BSP0ZNCf46vX-dzt2fuZKt69j28OpWDs7K3kQI2wFX5xX7zPd723DXC5NCS4anVeLRYhNlsVABuenfNUQmAVRilaO08xlh8z_8c1cfu4dl_IUhDqyBPCbkS6RNyup5E2bubd2HVb1oww8FxcI2RwzWvG_EuHEbaUhj35B5axdKplcM2PuN6JEdHD16qI-msDRQ2cYOIj5K8JzmaSoPMJU1QaDDbgRbY28vWt7z_y-_R0SkawJ2ifJtCGeyKaikDRTeRERH7tdIAcJkZqxrNk1MVaQBkabQEvr5toovvN1C9J4gimoLtYFK4h55OPhpajCWtU_XAPUnxhBvKTHX5lXFWTfWSWgN1Ay5fQQLYlinDEr8Hm2TC1hx29VkW7n-i5aqQ0sixnWqHsTrXM_O3fL75xY03fVVMs3AjRtFJyglt1qyS780HpD1yyKo_Y-sB7G9_XgRYV4d0mkok-bjwuQrRQ-9_kw1jsyJrtO9x3VKT8jqbLznnofJktVBNOxd85T_KoClQc5ol9G-gEu9IOP6YdVBYy4Ik20kH8nLoJw3FRHebk_j_XNNT1K9NuEasmK7vSrAoWncset0WVODI63TXNWuXshvM8zcDQks19lPXh8Xfapy3r425OIu2LSnqvzeHf9Qi488siagXNM6RjIzfLi_bciQ-OTwvTnfxHGs13Om5M6ijwIHTQiwJPabPKA1Bm_rQW_vGfgMGlVv9_IU8kezHoVE_OwzN5IQRGdJC7YcwnoJuk0NS-PBzrhcggq5e-AYkgXCqIYwYRNcRcZfdPgkAN_vKCHswORyzm8BUaPmhx_EvkkHQ6M1hmRqTniDgtgmmLqzdGa-io8pD4s5cyvokq5Hb-UGs5O_L8l7ibaBB6T0htcke_1tocXq4LB9CHGQZ_duHezXMtzql6PEnierHaTHxnjhZSDXnjIH35ER28oCZZsDtnSaz7gT724ADCywTyNNDxJ7-a0Wnn0hT3tjyGWAqgjU8MLedA8kw1veH3bBoJvateFhc4iOLEL1StmdRRFTRS-OucON2Te1nTEr0VaS9ehkmd3eljzRd-p38MrF2295zbgYxVSX6BgHTFJ2pHfoI_FqPwWVHD9Si1cZJjx39hkaLGrb7fToMdOO64Mg2eDN4wsaCNBhCXr-HWo7S-y-AJGNI8fm8rCUktntqbUNO4v1KSJSPPmggVK8HKeE99tRd9g-oh2LcBwZp2wpGgCtNEHCiIsKUcDbPiBYJQfa8PAfp8YF6zkA2GaKdLqg9L_AxGd1tLXpgH9KvTuLKnjdITBKX7PrzaQ-9bP484wv_otw3m00]--></g></svg>